PathFileType	4	(X/Y/Z)	C:\Users\ebm\Documents\Erivelton\Erivelton\propulsion1.trc
DataRate	CameraRate	NumFrames	NumMarkers	Units	OrigDataRate	OrigDataStartFrame	OrigNumFrames
150.00	150.00	      5	28	mm	150.00	739	      1182
Frame#	Time	IJ			PX			C7			T8			RAC			RAS			RPS			RAI			RPI			RLE			RME			RRS			RUS			R3M			R5M			LAC			LAS			LPS			LAI			LPI			LLE			LME			LRS			LUS			L3M			L5M			RW			LW			V_mid_elbow_r			V_mid_elbow_l			V_mid_wrist_r			V_mid_wrist_l			V_mid_trunk_low			V_mid_trunk_upp			
		X1	Y1	Z1	X2	Y2	Z2	X3	Y3	Z3	X4	Y4	Z4	X5	Y5	Z5	X6	Y6	Z6	X7	Y7	Z7	X8	Y8	Z8	X9	Y9	Z9	X10	Y10	Z10	X11	Y11	Z11	X12	Y12	Z12	X13	Y13	Z13	X14	Y14	Z14	X15	Y15	Z15	X16	Y16	Z16	X17	Y17	Z17	X18	Y18	Z18	X19	Y19	Z19	X20	Y20	Z20	X21	Y21	Z21	X22	Y22	Z22	X23	Y23	Z23	X24	Y24	Z24	X25	Y25	Z25	X26	Y26	Z26	X27	Y27	Z27	X28	Y28	Z28	

739	4.920	2757.40161	1016.79895	48.06808	2760.11719	844.81555	50.25982	2641.68384	1128.21106	47.57936	2539.88477	941.41101	52.61367	2674.98804	1072.22400	236.41771	2612.90283	918.50928	303.90439	2579.86768	959.17041	316.19339	2555.36011	865.30298	325.79401	2526.63306	905.58069	338.44440	2459.17798	851.76123	359.73856	2435.67480	831.38129	279.56644	2584.59106	616.29877	323.53494	2554.20166	606.87067	374.44260	2638.10840	564.60889	374.44174	2604.62476	547.27820	384.65378	2639.28223	1067.42773	-138.48138	2566.65137	939.26172	-219.74036	2527.85474	962.28571	-202.80043	2524.77271	878.22998	-252.66974	2478.80493	902.92609	-235.69148	2462.11523	832.52515	-270.95428	2434.38550	811.01886	-192.37604	2598.87573	610.88898	-215.32344	2572.72021	587.23840	-278.61285	2662.47583	572.87415	-285.88110	2629.86499	544.22235	-293.79745	2684.51904	304.83636	360.78323	2703.84033	299.25262	-267.41983	
740	4.927	2765.49414	1016.66425	48.17603	2767.80981	844.59369	50.44823	2649.78125	1128.04895	47.75413	2547.85596	941.56226	52.64264	2683.32056	1071.36414	236.74277	2622.46777	916.50037	304.16888	2588.98657	956.68262	316.87518	2565.80005	862.43500	326.27582	2536.53369	902.28363	339.21460	2469.90479	847.69037	360.73288	2446.56470	826.90924	280.58450	2598.01880	614.10730	323.24548	2569.47925	605.33746	375.22070	2654.24170	565.67249	374.84976	2621.05908	547.70148	387.21777	2647.84619	1067.03833	-138.76593	2576.40186	937.54498	-220.48320	2537.15967	960.16040	-203.78238	2535.32544	876.05328	-253.66597	2488.86646	900.23718	-236.99605	2473.43774	829.64349	-272.27249	2445.46680	807.72247	-193.99126	2613.22339	609.78845	-215.87909	2588.44458	586.83929	-279.65701	2678.54248	573.78027	-286.46652	2646.53394	544.45477	-294.95093	2692.11768	304.94635	360.85068	2710.88208	299.28354	-267.60379	
741	4.933	2773.60229	1016.49573	48.44463	2775.44458	844.33868	50.65651	2657.98413	1127.95068	47.88977	2555.88306	941.68823	52.67442	2691.67749	1070.51440	237.20573	2632.07007	914.53760	304.48761	2598.18701	954.24298	317.60922	2576.30859	859.72937	326.87265	2546.60181	899.10596	340.08035	2480.81299	843.67767	361.90152	2457.36426	822.55524	281.80502	2611.39624	612.26245	322.84183	2584.61646	603.83514	375.80911	2669.97876	567.13519	375.20874	2637.42163	548.71735	389.00339	2656.40747	1066.58276	-139.04475	2586.03589	935.91199	-221.32799	2546.36133	958.06293	-204.77440	2545.86035	874.03436	-254.78120	2499.04248	897.60583	-238.32031	2484.77344	827.06555	-273.70206	2456.63550	804.41400	-195.71960	2627.71167	608.82446	-216.61031	2603.80518	586.44159	-280.74753	2694.31787	573.85168	-287.26550	2662.66455	544.73041	-296.19785	2699.61768	305.05347	360.92569	2719.24829	299.41891	-267.24310	
742	4.940	2781.67822	1016.39319	48.68723	2783.16431	844.14801	50.77823	2666.17896	1127.81458	48.07788	2563.87329	941.89764	52.67513	2699.99316	1069.65234	237.68640	2641.76318	912.71155	304.87091	2607.42822	951.93671	318.38620	2586.76001	857.08734	327.55392	2556.62964	896.17725	341.03323	2491.79150	839.85461	363.27655	2467.98877	818.41455	283.18939	2625.02612	611.00684	322.55643	2599.23853	602.19427	376.20978	2684.87915	569.01526	375.83228	2652.99927	550.14746	390.28268	2665.00073	1066.15234	-139.35500	2595.82349	934.32574	-222.15941	2555.74854	956.07501	-205.88748	2556.58130	872.07562	-255.88904	2509.30054	895.13470	-239.73581	2496.24463	824.45532	-275.18225	2467.93042	801.26385	-197.57198	2642.01782	608.18726	-217.27771	2619.15137	585.94366	-281.68613	2709.83008	573.32898	-288.01700	2678.62036	544.80487	-297.00113	2707.27783	305.19724	361.08160	2726.99805	299.39001	-267.03363	
743	4.947	2789.71509	1016.20959	48.76979	2790.64771	843.92993	50.96276	2674.30957	1127.72815	48.26905	2571.80200	942.05121	52.72568	2708.47559	1068.73096	238.10995	2651.33032	910.91492	305.32758	2616.76880	949.75665	319.24683	2597.11865	854.72620	328.24942	2566.61694	893.46246	341.95447	2502.66479	836.38971	364.71555	2478.40112	814.57953	284.72134	2638.85181	610.46027	322.42313	2613.84277	600.56067	376.13855	2699.29761	570.29572	376.67108	2667.85938	550.81830	390.92453	2673.44189	1065.64087	-139.71672	2605.65430	932.81818	-222.97820	2565.19482	954.14752	-206.99977	2567.31470	870.21100	-257.05194	2519.70508	892.70020	-241.42007	2507.78662	822.06909	-276.86041	2479.15625	798.31921	-199.60977	2656.42358	607.88837	-217.81638	2634.14819	585.34180	-282.36377	2725.10645	572.79559	-288.44650	2694.15747	544.49237	-297.37787	2714.96948	305.31528	361.24933	2733.88940	299.40280	-267.23801	
